<svg xmlns="http://www.w3.org/2000/svg" viewBox="0 0 512 512" width="512" height="512">
  
    <defs><style>
      @keyframes sri-reveal {
        from { opacity: 0; }
        to { opacity: 1; }
      }
      rect { opacity: 0; animation: sri-reveal 0.6s ease-out 0.00s forwards; }
      [stroke-linejoin='round'] { opacity: 0; animation: sri-reveal 0.6s ease-out 0.89s forwards; }
      [data-id] { opacity: 0; animation: sri-reveal 0.6s ease-out 1.78s forwards; }
      [data-id='bindu'], circle:last-child { opacity: 0; animation: sri-reveal 0.6s ease-out 3.56s forwards; }
    
      @media (prefers-reduced-motion: reduce) {
        * { animation: none !important; opacity: 1 !important; stroke-dashoffset: 0 !important; }
      }
    </style></defs>
  <!-- Sri Yantra — Generated by @vibzart/sri-yantra -->
  <!-- Shastra: Soundarya Lahari, Verse 11 (Adi Shankaracharya) -->
  <!-- सर्वे भवन्तु सुखिनः — May all beings be happy -->
  <!-- Avarana 1: Trailokya Mohana Chakra (त्रैलोक्य मोहन चक्र) -->
  <g fill="none" stroke="#C9501C" stroke-width="2.048">
      <rect x="10.24" y="10.24" width="491.52" height="491.52" />
      <line x1="240.64" y1="10.24" x2="240.64" y2="-10.24" />
      <line x1="271.36" y1="10.24" x2="271.36" y2="-10.24" />
      <line x1="240.64" y1="-10.24" x2="271.36" y2="-10.24" />
      <line x1="240.64" y1="501.76" x2="240.64" y2="522.24" />
      <line x1="271.36" y1="501.76" x2="271.36" y2="522.24" />
      <line x1="240.64" y1="522.24" x2="271.36" y2="522.24" />
      <line x1="10.24" y1="240.64" x2="-10.24" y2="240.64" />
      <line x1="10.24" y1="271.36" x2="-10.24" y2="271.36" />
      <line x1="-10.24" y1="240.64" x2="-10.24" y2="271.36" />
      <line x1="501.76" y1="240.64" x2="522.24" y2="240.64" />
      <line x1="501.76" y1="271.36" x2="522.24" y2="271.36" />
      <line x1="522.24" y1="240.64" x2="522.24" y2="271.36" />
    </g>
<g fill="none" stroke="#C9501C" stroke-width="2.048">
      <rect x="20.48" y="20.48" width="471.04" height="471.04" />
      <line x1="240.64" y1="20.48" x2="240.64" y2="0" />
      <line x1="271.36" y1="20.48" x2="271.36" y2="0" />
      <line x1="240.64" y1="0" x2="271.36" y2="0" />
      <line x1="240.64" y1="491.52" x2="240.64" y2="512" />
      <line x1="271.36" y1="491.52" x2="271.36" y2="512" />
      <line x1="240.64" y1="512" x2="271.36" y2="512" />
      <line x1="20.48" y1="240.64" x2="0" y2="240.64" />
      <line x1="20.48" y1="271.36" x2="0" y2="271.36" />
      <line x1="0" y1="240.64" x2="0" y2="271.36" />
      <line x1="491.52" y1="240.64" x2="512" y2="240.64" />
      <line x1="491.52" y1="271.36" x2="512" y2="271.36" />
      <line x1="512" y1="240.64" x2="512" y2="271.36" />
    </g>
<g fill="none" stroke="#C9501C" stroke-width="2.048">
      <rect x="30.72" y="30.72" width="450.56" height="450.56" />
      <line x1="240.64" y1="30.72" x2="240.64" y2="10.24" />
      <line x1="271.36" y1="30.72" x2="271.36" y2="10.24" />
      <line x1="240.64" y1="10.24" x2="271.36" y2="10.24" />
      <line x1="240.64" y1="481.28" x2="240.64" y2="501.76" />
      <line x1="271.36" y1="481.28" x2="271.36" y2="501.76" />
      <line x1="240.64" y1="501.76" x2="271.36" y2="501.76" />
      <line x1="30.72" y1="240.64" x2="10.24" y2="240.64" />
      <line x1="30.72" y1="271.36" x2="10.24" y2="271.36" />
      <line x1="10.24" y1="240.64" x2="10.24" y2="271.36" />
      <line x1="481.28" y1="240.64" x2="501.76" y2="240.64" />
      <line x1="481.28" y1="271.36" x2="501.76" y2="271.36" />
      <line x1="501.76" y1="240.64" x2="501.76" y2="271.36" />
    </g>
  <!-- Avarana 2: Sarvashaparipuraka Chakra (सर्वाशापरिपूरक चक्र) — 16-petal lotus -->
  <g fill="none" stroke="#C9501C" stroke-width="2.048" stroke-linejoin="round">
    <path d="M 230.7702 96.7056 Q 240.9539 64.8216 256 68.608 Q 271.0461 64.8216 281.2298 96.7056"/>
    <path d="M 293.6501 99.1762 Q 315.2601 73.6163 327.7118 82.8724 Q 343.0616 85.132 340.2686 118.4862"/>
    <path d="M 350.798 125.5217 Q 380.5444 110.1773 388.5062 123.4938 Q 401.8227 131.4556 386.4783 161.202"/>
    <path d="M 393.5138 171.7314 Q 426.868 168.9384 429.1276 184.2882 Q 438.3837 196.7399 412.8238 218.3499"/>
    <path d="M 415.2944 230.7702 Q 447.1784 240.9539 443.392 256 Q 447.1784 271.0461 415.2944 281.2298"/>
    <path d="M 412.8238 293.6501 Q 438.3837 315.2601 429.1276 327.7118 Q 426.868 343.0616 393.5138 340.2686"/>
    <path d="M 386.4783 350.798 Q 401.8227 380.5444 388.5062 388.5062 Q 380.5444 401.8227 350.798 386.4783"/>
    <path d="M 340.2686 393.5138 Q 343.0616 426.868 327.7118 429.1276 Q 315.2601 438.3837 293.6501 412.8238"/>
    <path d="M 281.2298 415.2944 Q 271.0461 447.1784 256 443.392 Q 240.9539 447.1784 230.7702 415.2944"/>
    <path d="M 218.3499 412.8238 Q 196.7399 438.3837 184.2882 429.1276 Q 168.9384 426.868 171.7314 393.5138"/>
    <path d="M 161.202 386.4783 Q 131.4556 401.8227 123.4938 388.5062 Q 110.1773 380.5444 125.5217 350.798"/>
    <path d="M 118.4862 340.2686 Q 85.132 343.0616 82.8724 327.7118 Q 73.6163 315.2601 99.1762 293.6501"/>
    <path d="M 96.7056 281.2298 Q 64.8216 271.0461 68.608 256 Q 64.8216 240.9539 96.7056 230.7702"/>
    <path d="M 99.1762 218.3499 Q 73.6163 196.7399 82.8724 184.2882 Q 85.132 168.9384 118.4862 171.7314"/>
    <path d="M 125.5217 161.202 Q 110.1773 131.4556 123.4938 123.4938 Q 131.4556 110.1773 161.202 125.5217"/>
    <path d="M 171.7314 118.4862 Q 168.9384 85.132 184.2882 82.8724 Q 196.7399 73.6163 218.3499 99.1762"/>
    <circle cx="256" cy="256" r="161.28" />
    <circle cx="256" cy="256" r="187.392" />
  </g>
  <!-- Avarana 3: Sarvasankshobhana Chakra (सर्वसंक्षोभण चक्र) — 8-petal lotus -->
  <g fill="none" stroke="#C9501C" stroke-width="2.048" stroke-linejoin="round">
    <path d="M 210.4336 115.761 Q 229.4367 88.2858 256 94.72 Q 282.5633 88.2858 301.5664 115.761"/>
    <path d="M 322.9436 124.6157 Q 355.8088 118.625 370.0422 141.9578 Q 393.375 156.1912 387.3843 189.0564"/>
    <path d="M 396.239 210.4336 Q 423.7142 229.4367 417.28 256 Q 423.7142 282.5633 396.239 301.5664"/>
    <path d="M 387.3843 322.9436 Q 393.375 355.8088 370.0422 370.0422 Q 355.8088 393.375 322.9436 387.3843"/>
    <path d="M 301.5664 396.239 Q 282.5633 423.7142 256 417.28 Q 229.4367 423.7142 210.4336 396.239"/>
    <path d="M 189.0564 387.3843 Q 156.1912 393.375 141.9578 370.0422 Q 118.625 355.8088 124.6157 322.9436"/>
    <path d="M 115.761 301.5664 Q 88.2858 282.5633 94.72 256 Q 88.2858 229.4367 115.761 210.4336"/>
    <path d="M 124.6157 189.0564 Q 118.625 156.1912 141.9578 141.9578 Q 156.1912 118.625 189.0564 124.6157"/>
    <circle cx="256" cy="256" r="147.456" />
    <circle cx="256" cy="256" r="161.28" />
  </g>
  <circle cx="256" cy="256" r="153.6" fill="none" stroke="#C9501C" stroke-width="2.048" />
  <!-- Avaranas 4-8: Nine interlocking triangles (4 Shiva ↑ + 5 Shakti ↓) = 43 sub-triangles -->
  <path d="M 108.0167 214.843 L 403.9833 214.843 L 256 409.6 Z" fill="none" stroke="#C9501C" stroke-width="2.048" stroke-linejoin="miter" data-id="D1" data-tattva="shakti" />
  <path d="M 106.9834 293.2428 L 405.0166 293.2428 L 256 102.4 Z" fill="none" stroke="#C9501C" stroke-width="2.048" stroke-linejoin="miter" data-id="U1" data-tattva="shiva" />
  <path d="M 177.2312 363.5788 L 334.7688 363.5788 L 256 214.843 Z" fill="none" stroke="#C9501C" stroke-width="2.048" stroke-linejoin="miter" data-id="U3" data-tattva="shiva" />
  <path d="M 145.8145 329.61 L 366.1855 329.61 L 256 145.5693 Z" fill="none" stroke="#C9501C" stroke-width="2.048" stroke-linejoin="miter" data-id="U2" data-tattva="shiva" />
  <path d="M 164.586 145.5693 L 347.414 145.5693 L 256 272.374 Z" fill="none" stroke="#C9501C" stroke-width="2.048" stroke-linejoin="miter" data-id="D3" data-tattva="shakti" />
  <path d="M 149.9912 183.9954 L 362.0088 183.9954 L 256 363.5788 Z" fill="none" stroke="#C9501C" stroke-width="2.048" stroke-linejoin="miter" data-id="D2" data-tattva="shakti" />
  <path d="M 202.1614 272.374 L 309.8386 272.374 L 256 183.9954 Z" fill="none" stroke="#C9501C" stroke-width="2.048" stroke-linejoin="miter" data-id="U4" data-tattva="shiva" />
  <path d="M 204.3158 231.8964 L 307.6842 231.8964 L 256 329.61 Z" fill="none" stroke="#C9501C" stroke-width="2.048" stroke-linejoin="miter" data-id="D4" data-tattva="shakti" />
  <path d="M 217.0039 248.0094 L 294.9961 248.0094 L 256 293.2428 Z" fill="none" stroke="#C9501C" stroke-width="2.048" stroke-linejoin="miter" data-id="D5" data-tattva="shakti" />
  <!-- Avarana 9: Sarvanandamaya Chakra (सर्वानन्दमय चक्र) — Bindu -->
  <circle cx="256" cy="256" r="4.096" fill="#C9501C" />
</svg>