<svg xmlns="http://www.w3.org/2000/svg" viewBox="0 0 512 512" width="512" height="512">
  <!-- Sri Yantra — Generated by @vibzart/sri-yantra -->
  <!-- Shastra: Soundarya Lahari, Verse 11 (Adi Shankaracharya) -->
  <!-- सर्वे भवन्तु सुखिनः — May all beings be happy -->
  <!-- Avarana 1: Trailokya Mohana Chakra (त्रैलोक्य मोहन चक्र) -->
  <g fill="none" stroke="#C9501C" stroke-width="2.048">
      <rect x="10.240000000000009" y="10.240000000000009" width="491.52" height="491.52" />
      <!-- Gates (T-shaped openings at cardinal points) -->
      <line x1="240.64" y1="10.240000000000009" x2="240.64" y2="-10.239999999999991" />
      <line x1="271.36" y1="10.240000000000009" x2="271.36" y2="-10.239999999999991" />
      <line x1="240.64" y1="-10.239999999999991" x2="271.36" y2="-10.239999999999991" />
      <line x1="240.64" y1="501.76" x2="240.64" y2="522.24" />
      <line x1="271.36" y1="501.76" x2="271.36" y2="522.24" />
      <line x1="240.64" y1="522.24" x2="271.36" y2="522.24" />
      <line x1="10.240000000000009" y1="240.64" x2="-10.239999999999991" y2="240.64" />
      <line x1="10.240000000000009" y1="271.36" x2="-10.239999999999991" y2="271.36" />
      <line x1="-10.239999999999991" y1="240.64" x2="-10.239999999999991" y2="271.36" />
      <line x1="501.76" y1="240.64" x2="522.24" y2="240.64" />
      <line x1="501.76" y1="271.36" x2="522.24" y2="271.36" />
      <line x1="522.24" y1="240.64" x2="522.24" y2="271.36" />
    </g>
<g fill="none" stroke="#C9501C" stroke-width="2.048">
      <rect x="20.47999999999999" y="20.47999999999999" width="471.04" height="471.04" />
      <!-- Gates (T-shaped openings at cardinal points) -->
      <line x1="240.64" y1="20.47999999999999" x2="240.64" y2="-1.0658141036401503e-14" />
      <line x1="271.36" y1="20.47999999999999" x2="271.36" y2="-1.0658141036401503e-14" />
      <line x1="240.64" y1="-1.0658141036401503e-14" x2="271.36" y2="-1.0658141036401503e-14" />
      <line x1="240.64" y1="491.52" x2="240.64" y2="512" />
      <line x1="271.36" y1="491.52" x2="271.36" y2="512" />
      <line x1="240.64" y1="512" x2="271.36" y2="512" />
      <line x1="20.47999999999999" y1="240.64" x2="-1.0658141036401503e-14" y2="240.64" />
      <line x1="20.47999999999999" y1="271.36" x2="-1.0658141036401503e-14" y2="271.36" />
      <line x1="-1.0658141036401503e-14" y1="240.64" x2="-1.0658141036401503e-14" y2="271.36" />
      <line x1="491.52" y1="240.64" x2="512" y2="240.64" />
      <line x1="491.52" y1="271.36" x2="512" y2="271.36" />
      <line x1="512" y1="240.64" x2="512" y2="271.36" />
    </g>
<g fill="none" stroke="#C9501C" stroke-width="2.048">
      <rect x="30.72" y="30.72" width="450.56" height="450.56" />
      <!-- Gates (T-shaped openings at cardinal points) -->
      <line x1="240.64" y1="30.72" x2="240.64" y2="10.239999999999998" />
      <line x1="271.36" y1="30.72" x2="271.36" y2="10.239999999999998" />
      <line x1="240.64" y1="10.239999999999998" x2="271.36" y2="10.239999999999998" />
      <line x1="240.64" y1="481.28" x2="240.64" y2="501.76" />
      <line x1="271.36" y1="481.28" x2="271.36" y2="501.76" />
      <line x1="240.64" y1="501.76" x2="271.36" y2="501.76" />
      <line x1="30.72" y1="240.64" x2="10.239999999999998" y2="240.64" />
      <line x1="30.72" y1="271.36" x2="10.239999999999998" y2="271.36" />
      <line x1="10.239999999999998" y1="240.64" x2="10.239999999999998" y2="271.36" />
      <line x1="481.28" y1="240.64" x2="501.76" y2="240.64" />
      <line x1="481.28" y1="271.36" x2="501.76" y2="271.36" />
      <line x1="501.76" y1="240.64" x2="501.76" y2="271.36" />
    </g>
  <!-- Avarana 2: Sarvashaparipuraka Chakra (सर्वाशापरिपूरक चक्र) — 16-petal lotus -->
  <g fill="none" stroke="#C9501C" stroke-width="2.048" stroke-linejoin="round">
    <path d="M 230.77024947831157 96.70562442881618 Q 240.95393059590947 64.82156167693151 256 68.608 Q 271.04606940409053 64.82156167693151 281.22975052168846 96.70562442881618"/>
    <path d="M 293.6500682826804 99.17617923826273 Q 315.26006540448594 73.6162722926849 327.71181375775893 82.87236664364497 Q 343.06157653885305 85.13203525900636 340.26856851738825 118.48619429297202"/>
    <path d="M 350.7980054897301 125.52173914720848 Q 380.54439244906 110.17725213926829 388.5061539401095 123.4938460598905 Q 401.82274786073174 131.45560755094 386.47826085279155 161.2019945102699"/>
    <path d="M 393.51380570702804 171.73143148261178 Q 426.86796474099367 168.938423461147 429.12763335635503 184.2881862422411 Q 438.3837277073151 196.7399345955141 412.82382076173724 218.34993171731958"/>
    <path d="M 415.2943755711838 230.77024947831157 Q 447.17843832306846 240.95393059590947 443.392 256 Q 447.17843832306846 271.04606940409053 415.2943755711838 281.22975052168846"/>
    <path d="M 412.82382076173724 293.6500682826804 Q 438.3837277073151 315.26006540448594 429.12763335635503 327.71181375775893 Q 426.86796474099367 343.061576538853 393.51380570702804 340.2685685173882"/>
    <path d="M 386.47826085279155 350.7980054897301 Q 401.82274786073174 380.54439244906 388.5061539401095 388.50615394010947 Q 380.54439244906 401.82274786073174 350.7980054897301 386.47826085279155"/>
    <path d="M 340.26856851738825 393.513805707028 Q 343.06157653885305 426.86796474099367 327.71181375775893 429.12763335635503 Q 315.26006540448594 438.3837277073151 293.6500682826804 412.82382076173724"/>
    <path d="M 281.22975052168846 415.2943755711838 Q 271.04606940409053 447.17843832306846 256 443.392 Q 240.95393059590947 447.17843832306846 230.77024947831157 415.2943755711838"/>
    <path d="M 218.34993171731958 412.8238207617373 Q 196.7399345955141 438.38372770731513 184.28818624224112 429.12763335635503 Q 168.938423461147 426.86796474099367 171.73143148261178 393.51380570702804"/>
    <path d="M 161.20199451026997 386.47826085279155 Q 131.45560755094002 401.82274786073174 123.4938460598905 388.5061539401095 Q 110.17725213926832 380.54439244906 125.52173914720848 350.7980054897301"/>
    <path d="M 118.48619429297204 340.2685685173883 Q 85.13203525900641 343.0615765388531 82.872366643645 327.711813757759 Q 73.61627229268493 315.260065404486 99.17617923826273 293.65006828268054"/>
    <path d="M 96.70562442881621 281.22975052168846 Q 64.82156167693151 271.04606940409053 68.608 256 Q 64.82156167693151 240.9539305959095 96.70562442881618 230.7702494783116"/>
    <path d="M 99.17617923826273 218.34993171731952 Q 73.6162722926849 196.739934595514 82.87236664364497 184.28818624224104 Q 85.13203525900639 168.93842346114695 118.48619429297204 171.73143148261173"/>
    <path d="M 125.52173914720848 161.20199451026997 Q 110.17725213926826 131.45560755094002 123.49384605989047 123.4938460598905 Q 131.45560755093993 110.17725213926835 161.2019945102699 125.52173914720848"/>
    <path d="M 171.7314314826117 118.48619429297207 Q 168.9384234611468 85.13203525900644 184.288186242241 82.872366643645 Q 196.73993459551406 73.6162722926849 218.34993171731946 99.17617923826273"/>
    <circle cx="256" cy="256" r="161.28" />
    <circle cx="256" cy="256" r="187.392" />
  </g>
  <!-- Avarana 3: Sarvasankshobhana Chakra (सर्वसंक्षोभण चक्र) — 8-petal lotus -->
  <g fill="none" stroke="#C9501C" stroke-width="2.048" stroke-linejoin="round">
    <path d="M 210.43359007744778 115.76101033318184 Q 229.43667695073663 88.28577886291075 256 94.72 Q 282.56332304926343 88.28577886291075 301.5664099225522 115.76101033318184"/>
    <path d="M 322.9436231295946 124.61574196928004 Q 355.8087572084729 118.62503107356093 370.04218166976636 141.95781833023364 Q 393.37496892643907 156.19124279152706 387.38425803071993 189.05637687040542"/>
    <path d="M 396.23898966681816 210.43359007744778 Q 423.7142211370892 229.4366769507366 417.28 256 Q 423.7142211370892 282.5633230492634 396.23898966681816 301.5664099225522"/>
    <path d="M 387.38425803071993 322.9436231295946 Q 393.37496892643907 355.8087572084729 370.04218166976636 370.04218166976636 Q 355.8087572084729 393.37496892643907 322.9436231295946 387.38425803071993"/>
    <path d="M 301.5664099225522 396.23898966681816 Q 282.56332304926343 423.7142211370892 256 417.28 Q 229.43667695073663 423.7142211370892 210.43359007744778 396.23898966681816"/>
    <path d="M 189.05637687040542 387.38425803071993 Q 156.1912427915271 393.37496892643907 141.95781833023364 370.04218166976636 Q 118.62503107356093 355.80875720847297 124.61574196928004 322.9436231295946"/>
    <path d="M 115.76101033318184 301.5664099225522 Q 88.28577886291077 282.56332304926343 94.72 256 Q 88.28577886291075 229.43667695073663 115.76101033318184 210.43359007744778"/>
    <path d="M 124.61574196928004 189.05637687040542 Q 118.62503107356093 156.1912427915271 141.95781833023358 141.95781833023364 Q 156.19124279152703 118.62503107356093 189.05637687040536 124.61574196928004"/>
    <circle cx="256" cy="256" r="147.456" />
    <circle cx="256" cy="256" r="161.28" />
  </g>
  <circle cx="256" cy="256" r="153.6" fill="none" stroke="#C9501C" stroke-width="2.048" />
  <!-- Avaranas 4-8: Nine interlocking triangles (4 Shiva ↑ + 5 Shakti ↓) = 43 sub-triangles -->
  <path d="M 108.01668444124897 214.84300404257957 L 403.98331555875103 214.84300404257957 L 256 409.6 Z" fill="none" stroke="#C9501C" stroke-width="2.048" stroke-linejoin="miter" data-id="D1" data-tattva="shakti" />
  <path d="M 106.98344093669746 293.2427862133496 L 405.01655906330257 293.2427862133496 L 256 102.4 Z" fill="none" stroke="#C9501C" stroke-width="2.048" stroke-linejoin="miter" data-id="U1" data-tattva="shiva" />
  <path d="M 177.2312060835912 363.5788126314171 L 334.76879391640887 363.5788126314171 L 256 214.84300404257957 Z" fill="none" stroke="#C9501C" stroke-width="2.048" stroke-linejoin="miter" data-id="U3" data-tattva="shiva" />
  <path d="M 145.81454844795928 329.60996875267824 L 366.1854515520408 329.60996875267824 L 256 145.56926737331054 Z" fill="none" stroke="#C9501C" stroke-width="2.048" stroke-linejoin="miter" data-id="U2" data-tattva="shiva" />
  <path d="M 164.5860233653392 145.56926737331054 L 347.4139766346609 145.56926737331054 L 256.00000000000006 272.37399003964856 Z" fill="none" stroke="#C9501C" stroke-width="2.048" stroke-linejoin="miter" data-id="D3" data-tattva="shakti" />
  <path d="M 149.9911911263047 183.99537886744736 L 362.0088088736953 183.99537886744736 L 256 363.5788126314171 Z" fill="none" stroke="#C9501C" stroke-width="2.048" stroke-linejoin="miter" data-id="D2" data-tattva="shakti" />
  <path d="M 202.1614336921655 272.37399003964856 L 309.83856630783447 272.37399003964856 L 256 183.99537886744736 Z" fill="none" stroke="#C9501C" stroke-width="2.048" stroke-linejoin="miter" data-id="U4" data-tattva="shiva" />
  <path d="M 204.31579041296013 231.8964371462141 L 307.6842095870399 231.8964371462141 L 256 329.60996875267824 Z" fill="none" stroke="#C9501C" stroke-width="2.048" stroke-linejoin="miter" data-id="D4" data-tattva="shakti" />
  <path d="M 217.00389073519813 248.00937876181453 L 294.99610926480193 248.00937876181453 L 256 293.2427862133496 Z" fill="none" stroke="#C9501C" stroke-width="2.048" stroke-linejoin="miter" data-id="D5" data-tattva="shakti" />
  <!-- Avarana 9: Sarvanandamaya Chakra (सर्वानन्दमय चक्र) — Bindu -->
  <circle cx="256" cy="256" r="4.096" fill="#C9501C" />
</svg>