<svg xmlns="http://www.w3.org/2000/svg" viewBox="0 0 512 512" width="512" height="512">
  <!-- Sri Yantra — Generated by @vibzart/sri-yantra -->
  <!-- Shastra: Soundarya Lahari, Verse 11 (Adi Shankaracharya) -->
  <!-- सर्वे भवन्तु सुखिनः — May all beings be happy -->
  <circle cx="256" cy="256" r="163.84" fill="none" stroke="#C9501C" stroke-width="2.048" />
  <!-- Avaranas 4-8: Nine interlocking triangles (4 Shiva ↑ + 5 Shakti ↓) = 43 sub-triangles -->
  <path d="M 98.1511 212.0992 L 413.8489 212.0992 L 256 419.84 Z" fill="none" stroke="#C9501C" stroke-width="2.048" stroke-linejoin="miter" data-id="D1" data-tattva="shakti" />
  <path d="M 97.049 295.7256 L 414.951 295.7256 L 256 92.16 Z" fill="none" stroke="#C9501C" stroke-width="2.048" stroke-linejoin="miter" data-id="U1" data-tattva="shiva" />
  <path d="M 171.98 370.7507 L 340.02 370.7507 L 256 212.0992 Z" fill="none" stroke="#C9501C" stroke-width="2.048" stroke-linejoin="miter" data-id="U3" data-tattva="shiva" />
  <path d="M 138.4689 334.5173 L 373.5311 334.5173 L 256 138.2072 Z" fill="none" stroke="#C9501C" stroke-width="2.048" stroke-linejoin="miter" data-id="U2" data-tattva="shiva" />
  <path d="M 158.4918 138.2072 L 353.5082 138.2072 L 256 273.4656 Z" fill="none" stroke="#C9501C" stroke-width="2.048" stroke-linejoin="miter" data-id="D3" data-tattva="shakti" />
  <path d="M 142.9239 179.1951 L 369.0761 179.1951 L 256 370.7507 Z" fill="none" stroke="#C9501C" stroke-width="2.048" stroke-linejoin="miter" data-id="D2" data-tattva="shakti" />
  <path d="M 198.5722 273.4656 L 313.4278 273.4656 L 256 179.1951 Z" fill="none" stroke="#C9501C" stroke-width="2.048" stroke-linejoin="miter" data-id="U4" data-tattva="shiva" />
  <path d="M 200.8702 230.2895 L 311.1298 230.2895 L 256 334.5173 Z" fill="none" stroke="#C9501C" stroke-width="2.048" stroke-linejoin="miter" data-id="D4" data-tattva="shakti" />
  <path d="M 214.4042 247.4767 L 297.5958 247.4767 L 256 295.7256 Z" fill="none" stroke="#C9501C" stroke-width="2.048" stroke-linejoin="miter" data-id="D5" data-tattva="shakti" />
  <!-- Avarana 9: Sarvanandamaya Chakra (सर्वानन्दमय चक्र) — Bindu -->
  <circle cx="256" cy="256" r="4.096" fill="#C9501C" />
</svg>